# xmcd
#
# Track frame offsets:
#	150
#	13958
#	30569
#	43098
#	59173
#	72052
#	87427
#	102951
#	119418
#	135034
#	151077
#	164396
#	177369
#	191813
#
# Disc length: 2840 seconds
#
# Revision: 0
# Processed by: cddbd v1.5.2PL0 Copyright (c) Steve Scherf et al.
# Submitted via: EasyCDDAExtractor 8.2.1.1
#
DISCID=bc0b160e
DTITLE=MATEUS E CRISTIANO - SE E PRA FALAR DE AMOR
DYEAR=2008
DGENRE=Country
TTITLE0=SE É PRA FALAR DE AMOR
TTITLE1=TARDE DEMAIS
TTITLE2=DNA
TTITLE3=TA FICANDO SERIO
TTITLE4=VEM , VEM, VEM
TTITLE5=ME LEVA PRA CASA
TTITLE6=DEIXA ESSE CARA PRA LA
TTITLE7=VOLTA PRA ESSE CARA
TTITLE8=LAÇO ABERTO
TTITLE9=FIZ TUDO ERRADO
TTITLE10=CADE VOCE, CADE
TTITLE11=DEIXA ACONTECER
TTITLE12=DOIS AMIGOS
TTITLE13=ALGODÃO DOCE
EXTD=
EXTT0=
EXTT1=
EXTT2=
EXTT3=
EXTT4=
EXTT5=
EXTT6=
EXTT7=
EXTT8=
EXTT9=
EXTT10=
EXTT11=
EXTT12=
EXTT13=
PLAYORDER=
